<svg xmlns="http://www.w3.org/2000/svg" viewBox="0 0 1758 2800" width="100%" height="100%"><g><g><svg width="1758" height="939" viewBox="0 0 1759 940" version="1.1" xmlns:xlink="http://www.w3.org/1999/xlink" x="-80" y="0">
    <title>hero-background@svg</title>
    <g id="Festihealth" stroke="none" stroke-width="1" fill="none" fill-rule="evenodd">
        <g id="FestiHealth" transform="translate(-92.000000, -271.000000)">
            <g id="hero-background" transform="translate(92.000000, 271.000000)">
                <ellipse id="Oval" stroke="#E9ECEF" cx="1316" cy="496.5" rx="442" ry="442.5"/>
                <ellipse id="Oval" fill="#DCCDFF" opacity="0.366443452" cx="1196.5" cy="71.5" rx="70.5" ry="71.5"/>
                <circle id="Oval" stroke="#E9ECEF" cx="1415" cy="587" r="195"/>
                <circle id="Oval" fill="#FEE6A5" opacity="0.400971912" cx="201" cy="377" r="201"/>
            </g>
        </g>
    </g>
</svg></g><g><svg width="1758" height="939" viewBox="0 0 1965 929" version="1.1" xmlns:xlink="http://www.w3.org/1999/xlink" x="-40" y="940">
    <title>sponsors-graphic@svg</title>
    <g id="Festihealth" stroke="none" stroke-width="1" fill="none" fill-rule="evenodd">
        <g id="FestiHealth" transform="translate(175.000000, -4027.000000)">
            <g id="sponsors-graphic" transform="translate(-175.000000, 4027.000000)">
                <ellipse id="Oval" stroke="#E9ECEF" cx="1667" cy="626.5" rx="297" ry="297.5"/>
                <circle id="Oval" fill="#DCCDFF" opacity="0.400971912" cx="1570.5" cy="687.5" r="90.5"/>
                <circle id="Oval" fill="#DCCDFF" opacity="0.400971912" cx="198.5" cy="198.5" r="198.5"/>
                <ellipse id="Oval" stroke="#E9ECEF" cx="1839.5" cy="541" rx="47.5" ry="48"/>
                <circle id="Oval" stroke="#E9ECEF" cx="1887.5" cy="865.5" r="62.5"/>
                <circle id="Oval" stroke="#E9ECEF" cx="1561" cy="329" r="131"/>
                <circle id="Oval" stroke="#E9ECEF" cx="1334" cy="803" r="24"/>
            </g>
        </g>
    </g>
</svg></g><g><svg width="1758" height="939" viewBox="0 0 1922 877" version="1.1" xmlns:xlink="http://www.w3.org/1999/xlink" x="0" y="1880">
    <title>Why now-bg@svg</title>
    <g id="Festihealth" stroke="none" stroke-width="1" fill="none" fill-rule="evenodd">
        <g id="FestiHealth" transform="translate(284.000000, -2725.000000)">
            <g id="Why-now-bg" transform="translate(-283.000000, 2725.000000)">
                <ellipse id="Oval" stroke="#E9ECEF" cx="357" cy="574.5" rx="297" ry="297.5"/>
                <circle id="Oval" fill="#FEE6A5" opacity="0.400971912" cx="260.5" cy="635.5" r="90.5"/>
                <circle id="Oval" fill="#FEE6A5" opacity="0.400971912" cx="1757.5" cy="163.5" r="163.5"/>
                <ellipse id="Oval" stroke="#E9ECEF" cx="529.5" cy="489" rx="47.5" ry="48"/>
                <circle id="Oval" stroke="#E9ECEF" cx="577.5" cy="813.5" r="62.5"/>
                <circle id="Oval" stroke="#E9ECEF" cx="251" cy="277" r="131"/>
                <circle id="Oval" stroke="#E9ECEF" cx="24" cy="751" r="24"/>
            </g>
        </g>
    </g>
</svg></g></g></svg>