<?xml version="1.0" encoding="UTF-8"?>
<svg width="328px" height="77px" viewBox="0 0 328 77" version="1.1" xmlns="http://www.w3.org/2000/svg" xmlns:xlink="http://www.w3.org/1999/xlink">
    <title>logo@svg</title>
    <g id="Festihealth" stroke="none" stroke-width="1" fill="none" fill-rule="evenodd">
        <g id="FestiHealth" transform="translate(-578.000000, -188.000000)" fill="#27D158" fill-rule="nonzero">
            <g id="logo" transform="translate(578.000000, 188.000000)">
                <path d="M15.6357318,61.0464617 C16.6508754,56.4554899 16.3371572,51.5018974 17.028224,46.79821 C17.5498541,43.2454163 17.8687511,39.6859488 18.5509395,36.1531773 C18.8121243,34.7976136 19.1125237,33.450207 19.4269815,32.1072495 C23.0754309,31.5896439 26.9177338,32.0167796 30.498852,31.3226834 C31.6937909,31.0905761 31.2861062,29.2722811 30.3627106,28.95712 C27.2854645,27.9078191 23.3884085,28.452863 20.1986972,28.9467394 C20.4473038,27.9738186 20.6996102,27.0023801 20.9570952,26.0324251 C21.5393966,23.8374197 22.203827,21.6705938 22.9259695,19.5185988 C23.7087844,17.185664 24.9466377,14.9016721 25.1678684,12.4419319 C27.4756184,12.1074907 29.7989056,11.8761256 32.1133144,11.7663757 C34.3929478,11.6581081 36.6770204,11.6558835 38.9573945,11.7619254 C41.2555254,11.8687096 43.2613958,12.4241353 45.3442154,11.2732405 C45.9442748,10.941765 46.333462,10.0378084 45.9894087,9.39265511 C44.7308428,7.0322865 42.2551351,7.3689523 39.8423194,7.25252751 C37.1586998,7.1234964 34.4676819,7.14425987 31.7862819,7.31704249 C26.1356618,7.68040435 20.5531124,8.63923536 15.1503583,10.3574198 C8.07246946,12.6072996 -3.37897158,19.5200822 0.951666215,28.593017 C1.20915129,29.1321283 1.96089051,29.112106 2.11700957,28.5114454 C3.11587531,24.6738945 4.26272115,21.1351905 7.40951807,18.4878368 C10.6369639,15.7730012 14.9860992,14.5079073 19.0185572,13.5868952 C19.0792295,13.5728055 19.1391613,13.5609403 19.1998337,13.5475929 C18.6848624,14.5976361 18.276437,15.718868 17.8532138,16.6984636 C16.9712525,18.7355172 16.1181473,20.7925932 15.3671487,22.8815556 C14.46151,25.4043285 13.6979321,27.9671449 13.0431196,30.5611065 C11.9473271,30.9044471 10.8951885,31.3790424 10.4630868,32.4276021 C10.3010484,32.8206269 10.5733313,33.2299659 10.9395818,33.3434239 C11.4471536,33.5013756 11.9051522,33.5228802 12.3535318,33.4783864 C12.2255293,34.0568001 12.1012266,34.635955 11.982842,35.2165932 C11.1171586,39.4375283 10.5096998,43.6258347 10.3595001,47.9261168 C10.2070807,52.2753406 9.68619124,57.0094321 10.9277443,61.2266592 C11.5744177,63.4216646 15.12816,63.340093 15.6357318,61.0464617 Z M51.3048607,60.7379754 C51.7184649,60.3582992 51.4195456,59.2481902 50.7647331,59.5626102 C48.3178815,60.7364931 44.9446752,61.5944736 42.4830257,59.9541527 C40.4860338,58.6238015 38.2515343,56.1788922 38.4431683,53.6346147 C38.4513073,53.5248648 38.4705443,53.4151148 38.4831225,53.3061061 C44.7915141,54.0446961 51.8538646,49.5968451 55.5837035,45.0266368 C56.7927007,43.54575 57.9499051,41.8312735 58.3820067,39.9321492 C59.0841728,36.8465358 57.210744,33.3493587 54.2615004,32.2236777 C49.9967149,30.595962 44.814452,32.7828102 41.2555299,35.1061044 C34.670415,39.4063865 29.7989101,48.0588581 31.9690386,56.060244 C33.1765568,60.5103195 36.693304,63.6270781 41.3036241,63.8873637 C45.1562868,64.104639 48.3659757,63.43798 51.3048607,60.7379754 Z M39.3421459,50.1708097 C40.7819929,46.8219437 43.6831434,43.7229829 46.4289144,41.889857 C47.070408,41.461979 52.3340604,38.2569751 52.8216546,40.4519805 C53.0665615,41.5583815 50.4591516,44.1634671 49.7614259,44.8627536 C47.8547008,46.7752254 45.4648218,48.1589686 42.9402815,49.0621829 C42.1315707,49.3521315 40.6562089,49.8727039 39.3421459,50.1708097 Z M63.6266299,76.4136912 C67.1304343,75.0754172 68.8558513,71.9155395 69.8479893,68.8710695 C71.2026217,64.7163727 71.9193202,60.2302231 71.6480252,55.9102616 C71.3688995,51.4624276 70.1229693,47.1424661 69.6784871,42.7181758 C69.3017143,38.9706399 69.9447151,34.9170403 73.1007642,32.1638608 C75.8404284,29.7739865 71.053385,25.5583538 68.1257956,27.6758645 C62.3705704,31.8374885 61.8694338,38.0704569 63.3751443,44.0601454 C64.0591391,46.7814714 65.0618705,49.4293988 65.7688946,52.1401077 C60.1794821,55.274595 56.0207005,60.4693504 54.5840802,66.1940608 C53.3648655,71.0527478 56.1662498,79.263813 63.6266299,76.4136912 Z M56.6471186,66.3487051 C58.0620892,61.3090579 61.7952733,57.0837314 66.1184891,53.6187134 C66.2373241,54.1809825 66.3437232,54.7455588 66.4220249,55.3161378 C66.8881545,58.7082166 67.0235723,62.1958538 66.6099512,65.5943959 C66.2677246,68.4066648 65.9038484,73.6775898 62.178495,74.769814 C56.2542248,76.506939 55.7240707,69.6359934 56.6471186,66.3487051 Z M94.0346794,62.0982599 C95.9139383,58.8086632 97.7001552,55.4645938 99.2906163,52.0235822 C100.139968,50.1862833 100.950167,48.330519 101.702792,46.4516728 C101.948753,45.8372393 102.864431,44.3674006 102.506082,43.6657187 C102.44206,43.5401591 102.345794,43.4949185 102.223734,43.5152305 C101.108155,43.7031144 97.8424825,49.4112061 97.3671402,50.1405867 C95.6606079,52.7608155 94.3736838,55.6769514 92.7440725,58.3631934 C91.9808537,59.6220662 91.2300718,60.967264 90.2734001,62.0890323 C89.8551728,62.5792866 88.5608797,64.1271417 87.8851763,64.0209662 C85.0690518,63.5787213 85.5872305,55.8897629 85.7429138,53.911665 C86.286425,47.0056354 87.6525721,40.0474414 89.3208742,33.3302201 C90.3102484,29.3463281 91.5962512,25.452915 92.8933081,21.5650418 C94.5496349,21.213277 96.1635859,20.75072 97.5946786,19.905932 C98.4219207,19.4175242 98.4504776,18.4333222 97.9650025,17.7020962 C97.2975893,16.6966588 96.1276589,16.1108472 94.7969782,15.7673922 C95.4961727,13.5630948 96.1548339,11.3477174 96.7190712,9.10510425 C97.4804476,6.07909953 92.8638277,3.50272633 91.1969064,6.49780084 C90.2135203,8.26493166 89.0500376,9.71030452 88.1771952,11.5365247 C87.5622906,12.8235577 86.9888406,14.1336715 86.4361178,15.451172 C83.1842642,15.729536 80.1728444,16.4459911 76.9790258,17.6028434 C73.4236341,18.891723 74.8860475,25.7285068 78.7283933,24.7401509 C80.2801636,24.3408383 81.8443697,23.9899967 83.4076558,23.6363863 C82.3040517,27.0898628 81.3902165,30.6144307 80.6012045,34.1496168 C78.7767574,42.3232896 77.0822004,51.4853195 78.9273748,59.7868647 C79.7154656,63.3331296 81.4358167,68.4724889 85.7415296,68.5680473 C89.9643345,68.6617579 92.1650927,65.3707762 94.0346794,62.0982599 Z M114.126324,24.6619365 C114.142906,23.4478416 113.87115,22.3371532 113.16781,21.3307937 C112.920467,20.9767205 112.57087,20.6249568 112.210218,20.3793674 C111.526684,19.9135799 110.83578,19.7427752 110.001628,19.8110967 C109.24624,19.872956 108.686608,20.1065422 108.038539,20.509547 C107.115031,21.0838181 106.565531,22.210203 106.682985,23.2821152 C106.725821,23.6721946 106.844196,24.1135162 107.023371,24.5663782 C107.64058,26.1266969 108.97863,27.827353 110.434595,28.074789 C112.376956,28.4048569 114.101912,26.4659981 114.126324,24.6619365 Z M114.51231,56.3705826 C116.206406,53.8011332 121.632305,44.3870518 120.256946,44.0592922 C120.251417,44.0579084 120.252799,44.0491379 120.250497,44.0431363 C119.789894,43.9254205 117.904648,47.3899757 116.565676,49.4650158 C115.424303,51.2335316 113.888194,53.9253123 112.474604,55.5756506 C111.003439,57.2929253 108.311678,59.8826867 105.822581,59.4879907 C102.890386,59.0226649 104.396096,53.6294074 105.006855,51.6079156 C105.556354,49.789082 106.043211,47.9130058 106.727667,46.1394117 C107.430546,44.3173465 108.290031,42.5220554 109.227817,40.8093973 C109.661244,40.0181586 110.183568,39.283701 110.628509,38.502156 C111.410152,37.1301829 111.544187,35.6825017 111.800742,34.1461871 C112.122242,32.2202537 110.043082,30.9590726 108.403797,31.3990092 C102.440836,32.9994903 99.2428732,41.5327763 98.0605056,47.0271321 C97.0264524,51.8355013 96.1655864,63.3098507 103.24597,63.6934669 C107.964844,63.9492117 112.099674,60.0304095 114.51231,56.3705826 Z M144.135737,62.3212029 C144.33551,59.3861252 145.107226,56.441407 145.346213,53.4877904 C145.548206,50.9917135 145.808651,48.5015693 146.11645,46.0173576 C146.725388,41.1060343 147.531139,36.216958 148.386464,31.3427125 C152.239866,28.7613572 155.758833,25.7610222 158.776887,22.4284706 C161.371719,19.5623582 163.548506,16.2557615 164.41123,12.4345249 C164.838893,10.5413333 165.409357,8.04451527 163.712765,6.72528813 C161.711338,5.17024003 158.939671,4.8046536 156.537213,5.40160618 C146.931084,7.78867424 144.28076,18.381056 142.432489,26.7435802 C142.065498,28.4054068 141.721444,30.0694581 141.391448,31.7349927 C137.861382,33.6578462 134.183336,35.1617211 130.402444,36.3185485 C132.105695,29.0283143 134.409746,21.9219857 136.739693,14.8074999 C137.781473,11.629192 133.11492,10.8772545 131.77496,13.4230155 C130.679167,15.5053041 129.479788,17.3717997 128.600046,19.5630971 C127.706986,21.7870231 126.869418,24.0339372 126.088822,26.2993902 C124.835431,29.9367212 123.767755,33.6274444 122.927967,37.3826825 C122.868036,37.6511253 122.814763,37.9217927 122.756311,38.1909778 C119.483731,38.8064693 116.161578,39.2187741 112.812789,39.4657123 C111.794686,39.5398679 112.085466,41.0511588 112.981486,41.1297635 C116.018037,41.3974652 119.099723,41.3514891 122.17549,41.0289119 C121.703433,43.4715966 121.297227,45.9276288 120.970931,48.3940428 C120.67941,50.5979465 120.635756,52.7314026 120.726763,54.9545864 C120.808892,56.9619783 120.611339,59.5425924 121.704912,61.3208427 C122.572075,62.7305398 124.99303,62.2848652 125.66634,60.9330094 C126.725878,58.8077104 126.801348,56.3049598 127.30744,54.005396 C127.6071,52.6461242 127.859406,51.3491428 128.019225,49.9565012 C128.415812,46.5134585 128.968518,43.0889547 129.664024,39.6933716 C133.421238,38.7523372 137.108163,37.4197615 140.63231,35.7475531 C140.143975,38.4787029 139.706693,41.2194934 139.335263,43.976597 C138.953474,46.8152723 138.626438,49.6621047 138.38449,52.516353 C138.099628,55.8696681 138.45848,59.089503 138.601281,62.416122 C138.764059,66.2165951 143.88935,65.9466688 144.135737,62.3212029 Z M149.207015,26.6353171 C149.666494,24.0272657 150.185163,21.4184732 151.03161,18.9201718 C152.413743,14.8408742 155.759574,8.84465453 160.818273,9.88802398 C161.299209,14.9009411 157.063278,19.5823828 153.707089,22.780713 C152.275382,24.1444317 150.769684,25.4273233 149.207015,26.6353171 Z M172.57456,60.7379754 C172.988164,60.3582992 172.689245,59.2481902 172.034432,59.5626102 C169.587581,60.7364931 166.214374,61.5944736 163.752725,59.9541527 C161.755733,58.6238015 159.521234,56.1788922 159.712868,53.6346147 C159.721006,53.5248648 159.740243,53.4151148 159.752822,53.3061061 C166.061213,54.0446961 173.123564,49.5968451 176.853403,45.0266368 C178.0624,43.54575 179.219604,41.8312735 179.651706,39.9321492 C180.353872,36.8465358 178.480443,33.3493587 175.5312,32.2236777 C171.266414,30.595962 166.084151,32.7828102 162.525229,35.1061044 C155.940114,39.4063865 151.068609,48.0588581 153.238738,56.060244 C154.446256,60.5103195 157.963003,63.6270781 162.573323,63.8873637 C166.425986,64.104639 169.635675,63.43798 172.57456,60.7379754 Z M160.611845,50.1708097 C162.051692,46.8219437 164.952843,43.7229829 167.698614,41.889857 C168.340107,41.461979 173.60376,38.2569751 174.091354,40.4519805 C174.336261,41.5583815 171.728851,44.1634671 171.031125,44.8627536 C169.1244,46.7752254 166.734521,48.1589686 164.209981,49.0621829 C163.40127,49.3521315 161.925908,49.8727039 160.611845,50.1708097 Z M205.826428,70.0845444 C207.019888,69.8672691 206.78164,66.7964865 206.862289,65.7219719 C207.158989,61.7665139 207.187105,57.7895502 207.733152,53.8555969 C208.625472,47.4374318 210.024624,41.0682097 211.798166,34.8376582 C212.393786,32.7442467 209.722005,32.2051354 208.337651,33.2351562 C200.953443,30.5477602 190.631091,34.1131602 185.240176,39.3811716 C182.414495,42.1434667 180.431562,45.4018627 179.507426,49.2579525 C178.672078,52.7425232 178.818578,57.8666738 181.478521,60.617846 C184.317519,63.5544071 188.059196,61.375716 190.685104,59.4150425 C193.575155,57.2571149 196.296509,54.8796874 198.859525,52.339859 C200.729254,50.4874531 202.475419,48.5408694 204.112079,46.5104894 C203.691816,48.4570732 203.323346,50.4147799 203.016288,52.3806437 C202.311902,56.8863359 200.010811,63.5054619 202.732904,67.6233207 C203.195342,68.3226072 204.819424,70.2684499 205.826428,70.0845444 Z M186.207967,55.2912476 C184.552069,51.2809142 189.075821,45.7311114 192.123472,43.505703 C194.064971,42.08859 196.309829,41.1097367 198.603521,40.4193485 C200.517643,39.8431594 202.520554,39.6399727 204.470932,39.2691948 C202.685552,41.8831788 200.707798,44.3703562 198.567266,46.6840098 C196.771525,48.6246621 194.857403,50.4763269 192.820457,52.1611416 C191.802354,53.0028078 190.746516,53.8014636 189.681059,54.5815805 C189.085439,55.0168734 188.395112,55.6212409 187.730681,55.9475249 C186.55424,56.5251963 186.7037,56.4910843 186.207967,55.2912476 Z M222.814545,63.9007135 C225.791905,62.3753328 228.020486,57.9593682 229.654926,55.1755685 C231.383333,52.2323337 233.392163,48.8931083 234.200134,45.5479504 C234.388809,44.7678335 233.19387,43.4797515 232.641164,44.4815929 C231.070356,47.3254596 230.006378,50.4140387 228.366758,53.2408488 C226.997942,55.5997374 225.316149,59.019792 223.08313,60.641574 C217.865351,64.4324065 219.558243,54.0142897 219.898598,51.6487274 C220.372875,48.3554782 220.870827,45.0681615 221.468667,41.7941934 C222.552621,35.8528493 224.021324,29.9322687 225.922868,24.1993015 C226.856622,21.3828732 227.945756,18.6361513 229.043029,15.8812722 C230.360791,12.5709675 232.415495,8.87431178 232.419935,5.28518252 C232.422154,3.94593306 230.984528,3.02640442 229.754073,3.2421974 C227.760041,3.59147065 226.50443,5.1999052 225.470789,6.85283241 C224.164865,8.94179475 223.043175,11.223562 222.056888,13.4838236 C220.463143,17.1382101 219.06843,20.8838077 217.857952,24.6827973 C215.468073,32.1821507 213.843992,39.9981476 213.40819,47.8705035 C213.159584,52.3710054 212.130382,59.5121872 215.889816,62.8610532 C217.742527,64.5117558 220.552669,65.0597654 222.814545,63.9007135 Z M260.223696,67.3200428 C260.236594,67.3292749 260.24949,67.3385082 260.262847,67.3477403 C260.303381,67.2050958 260.336544,67.0610663 260.376156,66.9179602 C260.389513,66.8736429 260.400568,66.8279418 260.411622,66.7827012 C260.52401,66.3690782 260.635015,65.9549935 260.73865,65.5395238 C261.343883,63.6648325 262.499995,61.766136 263.280257,60.0294726 C264.170601,58.0476814 265.040219,56.0446561 266.041569,54.115491 C267.546818,51.2155132 269.284211,48.2209003 271.896749,46.177251 C272.934026,45.3657003 275.445231,43.5237837 276.686555,44.6760193 C277.651978,45.5725101 277.335544,47.8229704 277.213946,48.9331982 C276.746895,53.183915 276.056451,57.4249369 275.49774,61.6654971 C275.117282,64.5520878 279.707647,64.8433784 280.020397,62.1885272 C280.382431,59.117283 280.758282,56.0469621 281.106498,52.9738713 C281.370884,50.6417014 281.823656,48.1498067 281.413259,45.8074813 C280.70209,41.7469579 277.165583,39.8422598 273.297903,41.192536 C269.17551,42.6314467 266.211993,46.0456842 263.957343,49.6478056 C263.851865,49.816302 263.75652,49.9903372 263.654267,50.1602175 C264.669896,44.9751559 265.805281,39.8099446 267.258482,34.7292118 C268.297141,31.0975452 269.431145,27.4875755 270.682141,23.9209986 C271.593673,23.8651409 272.505206,23.8143615 273.41812,23.7765075 C275.950973,23.6717171 278.487051,23.621861 281.022207,23.6278626 C283.421486,23.6334025 285.915189,23.8771453 288.287292,23.477371 C289.412543,23.2871787 289.076764,21.6857732 288.170298,21.4272584 C283.465707,20.0871354 277.847736,20.5483062 272.998973,20.617551 L271.877406,20.6378641 L271.877406,20.6378641 C271.9944,20.3267232 272.103102,20.0123507 272.222398,19.7021331 C274.382163,14.0702111 277.083597,8.41382215 278.693403,2.60740212 C279.442803,-0.0959201757 275.983217,-0.698351601 274.446186,0.805648919 C272.392359,2.81513753 270.907377,5.34073131 269.537545,7.84324313 C268.150671,10.3776085 266.749057,12.8367275 265.582351,15.4841932 C264.780442,17.3039501 264.013539,19.1347869 263.283024,20.9790107 C261.172543,21.1161152 259.064365,21.2966137 256.960793,21.5385098 C253.340457,21.9549028 249.721501,22.4691625 246.12005,23.0946748 C247.040794,20.7962039 248.04629,18.5268155 249.154499,16.3169792 C251.110217,12.4180273 253.759603,8.70142053 254.984806,4.51625523 C255.835078,1.61166079 252.381941,-0.248258416 250.146637,1.22342804 C246.598155,3.55975289 244.180452,7.74030045 242.10866,11.3793537 C240.407195,14.3675033 238.88997,17.4512112 237.613179,20.6452507 C237.011171,22.1510978 236.46766,23.6671004 235.9633,25.1914129 C232.738161,25.9706496 229.541118,26.8579083 226.38599,27.8688844 C223.564339,28.7727618 225.002801,32.6033923 227.802803,31.7766079 C230.05515,31.111395 232.313024,30.4752645 234.577807,29.8700643 C233.529475,33.8511875 232.7833,37.9029404 232.343424,42.0525589 C231.70687,48.0639432 230.91141,60.2252025 238.368105,62.6617012 C245.006309,64.8309147 249.88363,55.4939263 252.945255,51.244134 C253.91252,49.9012433 254.860441,48.5440433 255.798227,47.1794556 C254.616781,53.8228166 254.110578,60.5815851 254.965457,67.0910721 C255.385065,70.2860337 259.155098,69.6485194 260.223696,67.3200428 Z M240.709346,56.6110756 C239.652264,55.8350706 239.615875,53.5615273 239.637524,52.3285064 C239.671608,50.3670273 240.133133,48.3238396 240.332574,46.3545133 C240.977417,39.9853637 242.404364,33.5617413 244.48859,27.4764945 C248.626184,26.5887741 252.793716,25.8386199 257.006848,25.288354 C258.626787,25.0769265 260.249031,24.8793476 261.873116,24.6979258 C261.053704,26.956696 260.29417,29.2371632 259.612938,31.5485594 C259.167536,33.0590243 258.731806,34.5948772 258.311736,36.1482722 C257.878309,36.8457992 257.443039,37.5460961 256.993491,38.2459314 C254.853991,41.5793826 252.616383,44.846359 250.293104,48.0533239 C249.175222,49.5961017 248.036151,51.1065644 246.825687,52.5773264 C245.735902,53.9012901 243.049668,58.3292737 240.709346,56.6110756 Z" id="FestiHealt"></path>
                <path d="M311.248756,26.1997453 C312.38589,27.0550143 313.546767,27.8811907 314.732237,28.6807722 C317.583128,30.6040874 319.299428,31.2324485 322.670974,31.9597183 C323.925128,32.2298474 325.677045,31.1044493 324.890125,29.6898081 C322.371641,25.1599605 317.883311,22.360598 313.724843,19.2271067 C318.014747,16.3512763 322.398776,13.4471887 327.014302,11.4881332 C328.194681,10.9869422 328.384629,9.27723542 327.202551,8.60066784 C322.59635,5.9625369 316.175487,10.4973718 311.769412,13.341618 C312.002605,10.2945692 312.231558,7.23754585 312.04246,4.20545692 C311.865232,1.36619803 307.253947,1.27393909 306.579806,3.89626469 C305.887859,6.58923963 305.50712,9.35286188 305.241704,12.131446 C303.143814,10.3419486 301.009463,8.60730942 298.726716,7.10622584 C296.957841,5.94259585 293.57951,7.59910676 294.938813,9.84158875 C296.968865,13.1903509 299.734109,16.1900244 302.688452,18.9536466 C301.893052,19.4573334 301.093412,19.956862 300.300556,20.4630424 C297.025677,22.5525907 292.941831,24.8856712 291.161931,28.3740696 C290.458959,29.7521413 292.198156,30.95733 293.435352,30.7387323 C297.246149,30.0663208 300.784991,28.0674188 304.162474,25.7875341 C307.301287,24.6955563 308.827075,24.4444953 311.248756,26.1997453 Z" id="*"></path>
            </g>
        </g>
    </g>
</svg>